<svg width="68" height="45" viewBox="0 0 68 45" fill="none" xmlns="http://www.w3.org/2000/svg">
<rect width="68" height="45" rx="20" fill="#2B8572"/>
<path d="M23.152 21.432C24.048 21.432 24.6987 21.2827 25.104 20.984C25.5307 20.6853 25.744 20.1947 25.744 19.512C25.744 18.8933 25.5307 18.4453 25.104 18.168C24.6987 17.8907 24.048 17.752 23.152 17.752H18.288V21.432H23.152ZM18.288 30.04C18.288 30.1893 18.3307 30.3173 18.416 30.424C18.5227 30.5093 18.7787 30.5733 19.184 30.616V31H12.592V30.616C12.9973 30.5733 13.2427 30.5093 13.328 30.424C13.4347 30.3173 13.488 30.1893 13.488 30.04V15.128C13.488 14.9787 13.4347 14.8613 13.328 14.776C13.2427 14.6693 12.9973 14.5947 12.592 14.552V14.168H24.048C25.0507 14.168 25.936 14.3173 26.704 14.616C27.472 14.8933 28.112 15.2773 28.624 15.768C29.136 16.2587 29.52 16.8347 29.776 17.496C30.032 18.136 30.16 18.808 30.16 19.512C30.16 20.216 30.032 20.8987 29.776 21.56C29.52 22.2 29.136 22.7653 28.624 23.256C28.112 23.7253 27.472 24.1093 26.704 24.408C25.936 24.6853 25.0507 24.824 24.048 24.824H18.288V30.04ZM49.1038 30.616C49.5091 30.5733 49.7544 30.5093 49.8398 30.424C49.9464 30.3173 49.9998 30.1893 49.9998 30.04V18.264L49.9358 18.2L44.2398 30.616L38.6078 18.072H38.5438V30.04C38.5438 30.1893 38.5864 30.3173 38.6718 30.424C38.7784 30.5093 39.0344 30.5733 39.4398 30.616V31H33.8078V30.616C34.2131 30.5733 34.4584 30.5093 34.5438 30.424C34.6504 30.3173 34.7038 30.1893 34.7038 30.04V15.128C34.7038 14.9787 34.6504 14.8613 34.5438 14.776C34.4584 14.6693 34.2131 14.5947 33.8078 14.552V14.168H42.1598V14.552C41.6478 14.5733 41.3918 14.7653 41.3918 15.128C41.3918 15.1493 41.4558 15.32 41.5838 15.64C41.7118 15.96 41.8718 16.3547 42.0638 16.824C42.2771 17.2933 42.5011 17.8053 42.7358 18.36C42.9918 18.8933 43.2264 19.416 43.4398 19.928C43.6744 20.4187 43.8771 20.856 44.0478 21.24C44.2184 21.624 44.3358 21.88 44.3998 22.008C44.7624 21.1973 45.1358 20.408 45.5198 19.64C45.9038 18.872 46.2451 18.168 46.5438 17.528C46.8638 16.888 47.1198 16.3547 47.3118 15.928C47.5038 15.5013 47.5998 15.2347 47.5998 15.128C47.5998 14.7653 47.3438 14.5733 46.8318 14.552V14.168H55.5038V14.552C55.0984 14.5947 54.8424 14.6693 54.7358 14.776C54.6504 14.8613 54.6078 14.9787 54.6078 15.128V30.04C54.6078 30.1893 54.6504 30.3173 54.7358 30.424C54.8424 30.5093 55.0984 30.5733 55.5038 30.616V31H49.1038V30.616Z" fill="white"/>
</svg>
